PathFileType	4	(X/Y/Z)	C:\Users\WrightLab\Desktop\Jo\P2_Trial10.trc
DataRate	CameraRate	NumFrames	NumMarkers	Units	OrigDataRate	OrigDataStartFrame	OrigNumFrames
100.00	100.00	       8	19	mm	100.00	524	       837
Frame#	Time	Headset_Front			Headset_Back			Headset_Left			Headset_Right			Left_Shoulder			Right_Shoulder			Sternum			C7			Left Elbow			Right Elbow			Left Wrist			Right Wrist			Left ASIS			Right ASIS			S2			Left Knee			Right Knee			Left Ankle			Right Ankle			
		X1	Y1	Z1	X2	Y2	Z2	X3	Y3	Z3	X4	Y4	Z4	X5	Y5	Z5	X6	Y6	Z6	X7	Y7	Z7	X8	Y8	Z8	X9	Y9	Z9	X10	Y10	Z10	X11	Y11	Z11	X12	Y12	Z12	X13	Y13	Z13	X14	Y14	Z14	X15	Y15	Z15	X16	Y16	Z16	X17	Y17	Z17	X18	Y18	Z18	X19	Y19	Z19	

524	5.230	-234.52724	1465.03308	604.85468	-382.42236	1692.11121	462.39331	-258.99750	1574.48059	432.61389	-349.40662	1556.90247	643.15662	-411.04697	1446.13367	318.69785	-470.51810	1482.77930	639.73041	-383.03387	1341.05884	503.97052	-547.99640	1459.91589	470.46103	-460.34930	1098.13586	213.04073	-594.31781	1185.92712	764.13202	-511.46640	872.53503	169.96248	-540.10443	976.99866	865.43982	-358.04630	1059.56287	480.01736	-406.15149	1049.24646	599.04413	-618.37744	961.01324	440.39169	-239.12236	534.43604	440.80542	-565.45990	562.98511	716.59009	-355.06073	227.66570	395.96567	-527.59943	128.16000	649.20203	
525	5.240	-228.05417	1463.98230	611.07440	-375.14444	1691.63953	467.46085	-252.09613	1573.63000	437.99316	-344.24066	1555.88721	647.75470	-407.32568	1446.15137	323.06723	-461.46811	1481.77100	644.09387	-375.34598	1342.02344	507.91510	-541.77167	1459.37488	476.60074	-459.90463	1098.81030	216.20190	-584.64221	1184.74084	769.97217	-514.02441	874.20673	173.08353	-527.65338	978.21472	871.83093	-352.33023	1058.94739	481.49014	-399.03467	1047.72852	601.15259	-612.92072	961.28693	445.47443	-229.78027	530.33032	441.48267	-561.74908	561.20410	715.90833	-336.65283	218.16324	404.56934	-529.45264	123.13865	644.37329	
526	5.250	-221.92400	1463.08691	616.73090	-368.31610	1691.01367	472.34293	-245.03722	1572.79199	443.12277	-338.08191	1554.59900	652.45105	-402.20749	1445.28845	326.74384	-453.74130	1481.17017	648.93512	-368.92508	1340.94385	510.43655	-535.34351	1458.78650	482.16043	-459.62653	1100.69617	218.28554	-574.09894	1182.55847	775.62097	-516.07129	875.99103	173.41379	-514.17352	978.29810	877.75531	-345.74182	1058.67932	484.18884	-392.28363	1046.41516	603.87122	-606.96234	961.02094	449.75592	-222.37999	524.95752	442.33832	-558.36871	559.17102	715.09827	-316.11884	207.15193	413.38489	-530.41394	122.03979	644.02258	
527	5.260	-216.16483	1461.32935	621.58313	-361.29669	1690.44153	477.52679	-237.93285	1572.33069	448.00308	-332.54590	1553.28760	657.29260	-398.24603	1445.92017	331.09589	-445.74533	1480.18237	654.29895	-362.22324	1339.79260	514.67242	-528.65112	1458.24426	487.25491	-458.78448	1100.93152	221.26920	-565.22205	1181.94653	781.70227	-517.85046	876.31451	177.81004	-501.45923	978.38477	882.81989	-339.30298	1057.96960	487.08405	-382.66608	1044.44470	607.10223	-601.00018	960.98730	454.48615	-215.82581	521.16888	441.96417	-553.48877	556.52679	712.22821	-294.77435	196.80591	419.30737	-532.14319	121.08456	644.98950	
528	5.270	-210.51755	1460.60559	625.50604	-353.61749	1689.67444	482.41220	-230.69821	1571.64941	453.43033	-325.48373	1552.06897	661.89087	-393.14474	1445.58130	335.25378	-436.62708	1478.54346	658.59369	-355.73431	1338.96399	517.63947	-521.95776	1457.91919	493.03607	-457.98492	1101.84753	224.29562	-554.45331	1180.17358	786.92438	-519.62024	878.37976	180.24693	-489.43158	978.54309	888.08368	-332.58237	1056.94104	490.72427	-374.07974	1043.76074	611.58221	-594.50031	960.77771	458.58484	-211.06023	517.11169	441.91858	-549.64374	554.90436	710.05115	-271.82779	186.52112	425.21442	-533.08459	119.96771	646.78540	
529	5.280	-203.25339	1459.54224	631.26166	-346.75226	1689.46411	487.19553	-223.52477	1570.90417	458.27353	-318.91788	1551.44128	666.48871	-387.52908	1445.34546	339.35022	-427.96057	1477.30029	663.24286	-349.00656	1337.36414	520.92114	-514.91064	1457.26611	498.65506	-456.75830	1103.04590	227.10579	-544.38531	1178.05554	792.20886	-520.28088	879.00531	183.34532	-476.78506	978.17987	892.44446	-325.84537	1056.66345	492.91028	-367.16116	1043.01880	613.71326	-587.78894	960.76563	462.22592	-207.44705	513.39276	440.65344	-546.46771	553.46857	708.34912	-248.68666	177.59818	428.43472	-533.78052	116.91903	644.76733	
530	5.290	-195.95622	1458.18542	635.66217	-339.26718	1688.59265	492.18414	-216.20050	1570.32080	463.43826	-312.38568	1550.37988	671.10474	-382.00662	1445.12671	343.91867	-419.51627	1475.92395	668.07672	-341.53995	1336.49329	524.71417	-507.79279	1456.48511	503.79773	-455.09659	1103.80640	230.43250	-534.39172	1176.64880	796.70251	-521.32208	880.44934	185.53682	-465.66855	977.78333	897.87628	-318.49826	1056.07471	495.74139	-359.27139	1041.24878	616.76105	-580.63324	960.07971	466.13901	-204.39542	510.14774	439.44177	-542.56586	551.50238	706.07507	-224.72983	168.61575	431.78729	-535.51819	115.65991	645.51971	
531	5.300	-190.03932	1458.30237	640.79230	-332.67538	1687.89758	496.87091	-208.88857	1569.91968	467.20425	-305.50082	1549.19507	675.52588	-375.80051	1444.72754	348.24850	-411.66129	1475.02625	673.33698	-334.30524	1334.71826	527.63586	-500.56778	1455.85352	509.55670	-453.10370	1105.10388	232.97670	-524.08136	1174.27625	801.70313	-521.85425	881.83014	188.60648	-453.66348	976.57251	901.25708	-311.48672	1055.26111	498.41592	-350.89124	1040.48047	619.77460	-574.22974	960.18817	469.14395	-202.36285	506.30426	438.61359	-539.31653	550.13251	704.32013	-200.72427	158.80646	435.20743	-535.86969	114.12453	644.49420	
